<svg xmlns="http://www.w3.org/2000/svg" viewBox="0 0 640 360">
  <rect width="640" height="360" fill="#251b22"/>
  <rect x="28" y="28" width="584" height="304" rx="18" fill="#7c634d"/>
  <rect x="44" y="44" width="552" height="272" rx="12" fill="#a78b6b"/>
  <rect x="82" y="82" width="136" height="66" rx="10" fill="#6f533f"/>
  <rect x="422" y="72" width="126" height="78" rx="10" fill="#6f533f"/>
  <rect x="210" y="118" width="220" height="124" rx="16" fill="#6a4350"/>
  <circle cx="320" cy="180" r="56" fill="#845867"/>
  <rect x="287" y="147" width="66" height="66" rx="10" fill="#d8c39a"/>
  <rect x="296" y="88" width="48" height="34" rx="8" fill="#5b4031"/>
  <rect x="296" y="238" width="48" height="34" rx="8" fill="#5b4031"/>
  <rect x="236" y="164" width="34" height="48" rx="8" fill="#5b4031"/>
  <rect x="370" y="164" width="34" height="48" rx="8" fill="#5b4031"/>
  <rect x="470" y="214" width="86" height="64" rx="10" fill="#5b4031"/>
  <rect x="86" y="228" width="102" height="44" rx="10" fill="#5b4031"/>
</svg>
